<?xml version="1.0" standalone="no"?>
<!DOCTYPE svg PUBLIC "-//W3C//DTD SVG 20010904//EN"
 "http://www.w3.org/TR/2001/REC-SVG-20010904/DTD/svg10.dtd">
<svg version="1.0" xmlns="http://www.w3.org/2000/svg"
 width="512.000000pt" height="512.000000pt" viewBox="0 0 512.000000 512.000000"
 preserveAspectRatio="xMidYMid meet">

<g transform="translate(0.000000,512.000000) scale(0.100000,-0.100000)"
fill="#000000" stroke="none">
<path d="M2315 4900 c-199 -18 -431 -79 -670 -177 -272 -110 -513 -276 -765
-525 -387 -382 -639 -948 -659 -1478 -14 -376 14 -603 109 -893 256 -777 903
-1369 1700 -1555 186 -44 226 -47 540 -47 292 1 310 2 430 27 247 53 427 116
635 223 649 333 1104 946 1240 1670 38 204 36 650 -5 849 -133 658 -506 1205
-1061 1554 -313 197 -664 317 -1027 352 -118 11 -343 11 -467 0z m1608 -1199
l149 -6 -154 -139 c-84 -76 -388 -358 -676 -625 -531 -495 -612 -561 -679
-561 -83 0 -99 13 -808 675 -171 160 -400 371 -509 470 l-198 180 134 5 c187
8 2561 9 2741 1z m-2997 -123 c71 -64 794 -734 929 -860 l50 -48 -50 -47 c-54
-52 -938 -870 -1018 -942 l-48 -44 3 974 c3 911 4 976 21 1007 10 17 21 32 25
32 5 0 44 -33 88 -72z m3385 35 c12 -23 14 -188 17 -1002 l3 -975 -48 45
c-460 426 -1053 984 -1053 990 0 13 1040 969 1054 969 7 0 19 -12 27 -27z
m-2162 -1161 c256 -236 266 -242 412 -242 150 0 166 9 383 204 77 69 145 126
152 126 14 0 -4 17 667 -608 273 -254 497 -469 497 -476 0 -40 -6 -41 -1140
-44 -1414 -3 -2226 7 -2257 29 -21 15 -14 22 340 351 199 185 463 431 587 547
124 116 231 211 239 211 7 0 61 -44 120 -98z"/>
</g>
</svg>
